<svg xmlns="http://www.w3.org/2000/svg" width="32" height="32" viewBox="0 0 32 32" fill="none">
  <path opacity="0.5" d="M6.30307 3.64426C6.71027 3.23364 7.28196 2.96592 8.36154 2.81954C9.47286 2.66886 10.9458 2.6665 13.0576 2.6665H18.9427C21.0546 2.6665 22.5275 2.66886 23.6388 2.81954C24.7184 2.96592 25.29 3.23364 25.6972 3.64426C26.1044 4.0549 26.3699 4.63141 26.5151 5.7201C26.6644 6.84081 26.6668 8.32616 26.6668 10.4559V23.9998H9.90147C8.45664 23.9998 7.95152 24.0074 7.56444 24.0906C6.87992 24.2378 6.28484 24.5533 5.85098 24.9794C5.70466 25.1232 5.63151 25.195 5.46278 25.6528C5.36596 25.9154 5.3335 26.0914 5.3335 26.2669V10.4559C5.3335 8.32616 5.33584 6.84081 5.48526 5.7201C5.6304 4.63141 5.89588 4.0549 6.30307 3.64426Z" fill="#1967F2"/>
  <path d="M26.6668 24H9.90147C8.45664 24 7.95152 24.0076 7.56444 24.0908C6.87992 24.238 6.28484 24.5535 5.85097 24.9796C5.70465 25.1233 5.63151 25.1952 5.46277 25.6529C5.29404 26.1108 5.32076 26.3051 5.3742 26.6933C5.38364 26.7619 5.39379 26.8288 5.40473 26.8941C5.55044 27.7637 5.81695 28.2243 6.22571 28.5523C6.63447 28.8803 7.20837 29.0941 8.29211 29.2111C9.40771 29.3315 10.8863 29.3333 13.0063 29.3333H18.914C21.034 29.3333 22.5127 29.3315 23.6283 29.2111C24.712 29.0941 25.2859 28.8803 25.6947 28.5523C25.9608 28.3387 26.1667 28.0689 26.3182 27.6667H10.6668C10.1145 27.6667 9.66683 27.2189 9.66683 26.6667C9.66683 26.1144 10.1145 25.6667 10.6668 25.6667H26.634C26.657 25.1824 26.6644 24.6321 26.6668 24Z" fill="#1967F2"/>
  <path d="M9.6665 9.3335C9.6665 8.78122 10.1142 8.3335 10.6665 8.3335H21.3332C21.8854 8.3335 22.3332 8.78122 22.3332 9.3335C22.3332 9.88578 21.8854 10.3335 21.3332 10.3335H10.6665C10.1142 10.3335 9.6665 9.88578 9.6665 9.3335Z" fill="#1967F2"/>
  <path d="M10.6665 13C10.1142 13 9.6665 13.4477 9.6665 14C9.6665 14.5523 10.1142 15 10.6665 15H17.3332C17.8854 15 18.3332 14.5523 18.3332 14C18.3332 13.4477 17.8854 13 17.3332 13H10.6665Z" fill="#1967F2"/>
</svg>