<svg xmlns="http://www.w3.org/2000/svg" width="24" height="24" viewBox="0 0 24 24" fill="none">
    <path
        d="M19.8999 2.30719C19.739 1.8976 19.1614 1.8976 19.0005 2.30719L18.5701 3.40247C18.521 3.52752 18.4224 3.62651 18.2978 3.67583L17.2065 4.1078C16.7984 4.26934 16.7984 4.849 17.2065 5.01054L18.2978 5.44252C18.4224 5.49184 18.521 5.59082 18.5701 5.71587L19.0005 6.81115C19.1614 7.22074 19.739 7.22074 19.8999 6.81116L20.3303 5.71587C20.3794 5.59082 20.478 5.49184 20.6026 5.44252L21.6939 5.01054C22.102 4.849 22.102 4.26934 21.6939 4.1078L20.6026 3.67583C20.478 3.62651 20.3794 3.52752 20.3303 3.40247L19.8999 2.30719Z"
        fill="black" />
    <path
        d="M16.0327 8.12969C15.8717 7.72011 15.2942 7.72011 15.1332 8.12969L14.9763 8.52904C14.9272 8.65409 14.8286 8.75307 14.704 8.80239L14.3061 8.95989C13.898 9.12143 13.898 9.70109 14.3061 9.86263L14.704 10.0201C14.8286 10.0694 14.9272 10.1684 14.9763 10.2935L15.1332 10.6928C15.2942 11.1024 15.8717 11.1024 16.0327 10.6928L16.1896 10.2935C16.2387 10.1684 16.3373 10.0694 16.4619 10.0201L16.8598 9.86263C17.2679 9.70109 17.2679 9.12143 16.8598 8.95989L16.4619 8.80239C16.3373 8.75307 16.2387 8.65409 16.1896 8.52904L16.0327 8.12969Z"
        fill="black" />
    <path
        d="M12 22C17.5228 22 22 17.5228 22 12C22 11.5373 21.3065 11.4608 21.0672 11.8568C19.9289 13.7406 17.8615 15 15.5 15C11.9101 15 9 12.0899 9 8.5C9 6.13845 10.2594 4.07105 12.1432 2.93276C12.5392 2.69347 12.4627 2 12 2C6.47715 2 2 6.47715 2 12C2 17.5228 6.47715 22 12 22Z"
        fill="url(#paint0_linear_1782_3892)" />
    <defs>
        <linearGradient id="paint0_linear_1782_3892" x1="12" y1="2" x2="12" y2="22"
            gradientUnits="userSpaceOnUse">
            <stop />
            <stop offset="1" stop-opacity="0.5" />
        </linearGradient>
    </defs>
</svg>