<svg width="24" height="24" viewBox="0 0 24 24" fill="none" xmlns="http://www.w3.org/2000/svg">
    <path
        d="M18 12C18 15.3137 15.3137 18 12 18C8.68629 18 6 15.3137 6 12C6 8.68629 8.68629 6 12 6C15.3137 6 18 8.68629 18 12Z"
        fill="url(#paint0_linear_1782_4441)" />
    <path fill-rule="evenodd" clip-rule="evenodd"
        d="M12 1.25C12.4142 1.25 12.75 1.58579 12.75 2V3C12.75 3.41421 12.4142 3.75 12 3.75C11.5858 3.75 11.25 3.41421 11.25 3V2C11.25 1.58579 11.5858 1.25 12 1.25ZM1.25 12C1.25 11.5858 1.58579 11.25 2 11.25H3C3.41421 11.25 3.75 11.5858 3.75 12C3.75 12.4142 3.41421 12.75 3 12.75H2C1.58579 12.75 1.25 12.4142 1.25 12ZM20.25 12C20.25 11.5858 20.5858 11.25 21 11.25H22C22.4142 11.25 22.75 11.5858 22.75 12C22.75 12.4142 22.4142 12.75 22 12.75H21C20.5858 12.75 20.25 12.4142 20.25 12ZM12 20.25C12.4142 20.25 12.75 20.5858 12.75 21V22C12.75 22.4142 12.4142 22.75 12 22.75C11.5858 22.75 11.25 22.4142 11.25 22V21C11.25 20.5858 11.5858 20.25 12 20.25Z"
        fill="url(#paint1_linear_1782_4441)" />
    <g opacity="0.5">
        <path
            d="M4.39838 4.39838C4.69127 4.10549 5.16615 4.10549 5.45904 4.39838L5.85188 4.79122C6.14477 5.08411 6.14477 5.55898 5.85188 5.85188C5.55898 6.14477 5.08411 6.14477 4.79122 5.85188L4.39838 5.45904C4.10549 5.16615 4.10549 4.69127 4.39838 4.39838Z"
            fill="url(#paint2_linear_1782_4441)" />
        <path
            d="M19.6009 4.39838C19.8938 4.69127 19.8938 5.16615 19.6009 5.45904L19.2081 5.85188C18.9152 6.14477 18.4403 6.14477 18.1474 5.85188C17.8545 5.55898 17.8545 5.08411 18.1474 4.79122L18.5402 4.39838C18.8331 4.10549 19.308 4.10549 19.6009 4.39838Z"
            fill="url(#paint3_linear_1782_4441)" />
        <path
            d="M18.1474 18.1474C18.4403 17.8545 18.9152 17.8545 19.2081 18.1474L19.6009 18.5402C19.8938 18.8331 19.8938 19.308 19.6009 19.6009C19.308 19.8938 18.8331 19.8938 18.5402 19.6009L18.1474 19.2081C17.8545 18.9152 17.8545 18.4403 18.1474 18.1474Z"
            fill="url(#paint4_linear_1782_4441)" />
        <path
            d="M5.85188 18.1484C6.14477 18.4413 6.14477 18.9161 5.85188 19.209L5.45904 19.6019C5.16615 19.8948 4.69127 19.8948 4.39838 19.6019C4.10549 19.309 4.10549 18.8341 4.39838 18.5412L4.79122 18.1484C5.08411 17.8555 5.55898 17.8555 5.85188 18.1484Z"
            fill="url(#paint5_linear_1782_4441)" />
    </g>
    <defs>
        <linearGradient id="paint0_linear_1782_4441" x1="12" y1="6" x2="12" y2="18"
            gradientUnits="userSpaceOnUse">
            <stop stop-color="white" />
            <stop offset="1" stop-color="white" stop-opacity="0.5" />
        </linearGradient>
        <linearGradient id="paint1_linear_1782_4441" x1="12" y1="1.25" x2="12" y2="22.75"
            gradientUnits="userSpaceOnUse">
            <stop stop-color="white" />
            <stop offset="1" stop-color="white" stop-opacity="0.5" />
        </linearGradient>
        <linearGradient id="paint2_linear_1782_4441" x1="5.12513" y1="4.17871" x2="5.12513"
            y2="6.07155" gradientUnits="userSpaceOnUse">
            <stop stop-color="white" />
            <stop offset="1" stop-color="white" stop-opacity="0.5" />
        </linearGradient>
        <linearGradient id="paint3_linear_1782_4441" x1="18.8742" y1="4.17871" x2="18.8742"
            y2="6.07155" gradientUnits="userSpaceOnUse">
            <stop stop-color="white" />
            <stop offset="1" stop-color="white" stop-opacity="0.5" />
        </linearGradient>
        <linearGradient id="paint4_linear_1782_4441" x1="18.8742" y1="17.9277" x2="18.8742"
            y2="19.8206" gradientUnits="userSpaceOnUse">
            <stop stop-color="white" />
            <stop offset="1" stop-color="white" stop-opacity="0.5" />
        </linearGradient>
        <linearGradient id="paint5_linear_1782_4441" x1="5.12513" y1="17.9287" x2="5.12513"
            y2="19.8216" gradientUnits="userSpaceOnUse">
            <stop stop-color="white" />
            <stop offset="1" stop-color="white" stop-opacity="0.5" />
        </linearGradient>
    </defs>
</svg>