<svg width="214" height="38" viewBox="0 0 214 38" fill="none" xmlns="http://www.w3.org/2000/svg">
<path d="M24.856 20.968V15.544L42.328 37H31.144L19.192 21.592H23.512L11.512 37H0.52L18.088 15.592V20.92L1.624 0.999997H12.904L23.8 14.92H19.384L30.136 0.999997H41.224L24.856 20.968ZM75.6201 15.64V22.36H49.5561V15.64H75.6201ZM55.7001 19L53.3001 33.88L49.5081 29.608H77.1561V37H44.2281L47.0121 19L44.2281 0.999997H76.9161V8.392H49.5081L53.3001 4.12L55.7001 19ZM102.087 37.768C97.8629 37.768 94.1509 36.984 90.9509 35.416C87.7829 33.848 85.3189 31.656 83.5589 28.84C81.7989 26.024 80.9189 22.744 80.9189 19C80.9189 15.256 81.7989 11.976 83.5589 9.16C85.3189 6.344 87.7829 4.152 90.9509 2.584C94.1509 1.016 97.8629 0.231998 102.087 0.231998C106.311 0.231998 110.007 1.016 113.175 2.584C116.375 4.152 118.855 6.344 120.615 9.16C122.407 11.976 123.303 15.256 123.303 19C123.303 22.744 122.407 26.024 120.615 28.84C118.855 31.656 116.375 33.848 113.175 35.416C110.007 36.984 106.311 37.768 102.087 37.768ZM102.087 29.656C104.583 29.656 106.727 29.24 108.519 28.408C110.311 27.544 111.687 26.312 112.647 24.712C113.639 23.112 114.135 21.208 114.135 19C114.135 16.792 113.639 14.888 112.647 13.288C111.687 11.688 110.311 10.472 108.519 9.64C106.727 8.776 104.583 8.344 102.087 8.344C99.6229 8.344 97.4949 8.776 95.7029 9.64C93.9109 10.472 92.5189 11.688 91.5269 13.288C90.5349 14.888 90.0389 16.792 90.0389 19C90.0389 21.208 90.5349 23.112 91.5269 24.712C92.5189 26.312 93.9109 27.544 95.7029 28.408C97.4949 29.24 99.6229 29.656 102.087 29.656ZM162.036 30.808L159.108 31.336V0.999997H167.892V37H156.468L134.532 6.664L137.46 6.136V37H128.676V0.999997H140.436L162.036 30.808ZM192.463 0.999997C196.687 0.999997 200.383 1.752 203.551 3.256C206.719 4.76 209.183 6.856 210.943 9.544C212.735 12.232 213.631 15.384 213.631 19C213.631 22.584 212.735 25.736 210.943 28.456C209.183 31.144 206.719 33.24 203.551 34.744C200.383 36.248 196.687 37 192.463 37H174.895V0.999997H192.463ZM183.919 33.304L179.503 28.984H193.135C195.439 28.984 197.439 28.568 199.135 27.736C200.831 26.904 202.143 25.752 203.071 24.28C203.999 22.776 204.463 21.016 204.463 19C204.463 16.952 203.999 15.192 203.071 13.72C202.143 12.248 200.831 11.096 199.135 10.264C197.439 9.432 195.439 9.016 193.135 9.016H179.503L183.919 4.696V33.304Z" fill="#1967F2"/>
</svg>
