<?xml version="1.0" encoding="UTF-8"?>
<svg id="Layer_2" xmlns="http://www.w3.org/2000/svg" xmlns:xlink="http://www.w3.org/1999/xlink" viewBox="0 0 645.08 645.04">
  <defs>
    <style>
      .cls-1 {
        fill: url(#_Безымянный_градиент_5);
      }

      .cls-2 {
        fill: url(#_Безымянный_градиент_23-2);
      }

      .cls-3 {
        fill: url(#_Безымянный_градиент_23);
      }

      .cls-4 {
        fill: url(#_Безымянный_градиент_16);
      }
    </style>
    <linearGradient id="_Безымянный_градиент_5" data-name="Безымянный градиент 5" x1="130.88" y1="130.84" x2="385.19" y2="385.15" gradientUnits="userSpaceOnUse">
      <stop offset="0" stop-color="#1967f2"/>
      <stop offset=".17" stop-color="#1960ec"/>
      <stop offset=".39" stop-color="#194fdd"/>
      <stop offset=".64" stop-color="#1a33c3"/>
      <stop offset=".92" stop-color="#1b0ca0"/>
      <stop offset="1" stop-color="#1c0095"/>
    </linearGradient>
    <linearGradient id="_Безымянный_градиент_16" data-name="Безымянный градиент 16" x1="383.82" y1="383.79" x2="513.95" y2="513.92" gradientUnits="userSpaceOnUse">
      <stop offset="0" stop-color="#1c0095"/>
      <stop offset=".08" stop-color="#1b0ca0"/>
      <stop offset=".36" stop-color="#1a33c3"/>
      <stop offset=".61" stop-color="#194fdd"/>
      <stop offset=".83" stop-color="#1960ec"/>
      <stop offset="1" stop-color="#1967f2"/>
    </linearGradient>
    <linearGradient id="_Безымянный_градиент_23" data-name="Безымянный градиент 23" x1="475.53" y1="100.19" x2="536.8" y2="61.13" gradientUnits="userSpaceOnUse">
      <stop offset="0" stop-color="#000355"/>
      <stop offset=".19" stop-color="#01055c" stop-opacity=".93"/>
      <stop offset=".44" stop-color="#070e71" stop-opacity=".73"/>
      <stop offset=".72" stop-color="#101c94" stop-opacity=".4"/>
      <stop offset="1" stop-color="#1b2dbe" stop-opacity="0"/>
    </linearGradient>
    <linearGradient id="_Безымянный_градиент_23-2" data-name="Безымянный градиент 23" x1="103.11" y1="467.58" x2="65.58" y2="530.77" xlink:href="#_Безымянный_градиент_23"/>
  </defs>
  <g id="_Слой_1" data-name="Слой_1">
    <g>
      <path class="cls-1" d="M633.38,11.41c-26.57-26.57-72.27.08-91.79,11.46-24.32,14.18-54.54,35.46-88.49,62.26-38.74-21.41-83.28-33.63-130.68-33.63-149.6,0-270.87,121.27-270.87,270.87,0,47.41,12.21,91.94,33.63,130.68-27.59,34.96-49.35,65.99-63.52,90.66-10.9,18.98-36.42,63.41-10.21,89.63,7.72,7.72,17.08,11.69,28.77,11.69,26.43,0,64.8-20.29,123.12-63.63.16-.12.32-.24.48-.36,64.09-47.67,142.71-117.25,221.37-195.91,78.66-78.66,148.23-157.27,195.9-221.37,62.82-84.46,77.49-127.18,52.29-152.38ZM345.13,345.09c-97.34,97.34-175.87,162.68-229.34,200.88-19.36,13.83-35.43,24.1-47.93,31.05,9.36-16.97,25.46-41.77,51.43-75.58,5.05,5.72,10.33,11.25,15.84,16.53,5.42-4.14,11.01-8.48,16.79-13.06.16-.13.32-.25.48-.38,8.61-6.82,17.6-14.12,26.98-21.9.18-.15.35-.29.53-.44,6.24-5.19,12.64-10.59,19.21-16.21.19-.16.39-.33.58-.5,3.25-2.79,6.54-5.62,9.87-8.51,0,0,0,0,0,0-38.39-32.22-62.82-80.54-62.82-134.59,0-97.01,78.64-175.66,175.66-175.66,54.04,0,102.37,24.43,134.59,62.82,3.24-3.73,6.4-7.4,9.5-11.04,1.56-1.83,3.08-3.62,4.61-5.43,1.88-2.22,3.74-4.42,5.58-6.6,1.49-1.77,2.97-3.54,4.43-5.29,2.18-2.61,4.3-5.18,6.4-7.74,1.45-1.76,2.88-3.51,4.29-5.24,2.36-2.89,4.67-5.75,6.93-8.56,1.16-1.45,2.29-2.87,3.43-4.29,1.81-2.27,3.59-4.51,5.33-6.73,1.04-1.32,2.09-2.65,3.1-3.95,2.53-3.25,5.02-6.45,7.41-9.58-5.28-5.52-10.81-10.8-16.54-15.85,33.81-25.97,58.61-42.1,75.6-51.46-26.12,47-99.34,144.69-231.95,277.3Z"/>
      <path class="cls-4" d="M565.25,202.36s0,0,0,0c-10.46,13.16-21.64,26.76-33.46,40.7-.05.06-.1.12-.15.17-2.89,3.41-5.82,6.84-8.78,10.29-.17.19-.34.39-.5.58-9.02,10.48-18.38,21.14-28.05,31.94,0,0-.01.02-.02.02,2.46,11.72,3.78,23.86,3.78,36.31,0,97.01-78.64,175.66-175.66,175.66-12.45,0-24.59-1.32-36.31-3.78h-.01c-14.4,12.9-28.55,25.24-42.37,36.97-.27.23-.53.45-.8.68-3.24,2.75-6.46,5.45-9.66,8.13-.43.36-.86.72-1.29,1.08-10.05,8.38-19.9,16.42-29.52,24.06-.02.02-.04.03-.06.05,36.18,17.92,76.91,28.03,120.02,28.03,149.6,0,270.87-121.27,270.87-270.87,0-43.11-10.12-83.84-28.04-120.02Z"/>
      <path class="cls-3" d="M577.07,67.79V5.39c-14.23,5.1-27.21,12.66-35.48,17.48-24.32,14.18-54.54,35.46-88.49,62.26,0,0,35.92,22.44,48.37,34.12,33.81-25.97,58.61-42.1,75.6-51.46Z"/>
      <path class="cls-2" d="M67.85,577.02c9.36-16.97,25.46-41.77,51.43-75.58-5.28-5.82-34.12-48.38-34.12-48.38-27.59,34.96-49.35,65.99-63.52,90.66-1.27,2.21-2.73,4.76-4.29,7.59l50.49,25.71Z"/>
    </g>
  </g>
</svg>