<svg width="214" height="39" viewBox="0 0 214 39" fill="none" xmlns="http://www.w3.org/2000/svg">
<path d="M24.856 21.468V16.044L42.328 37.5H31.144L19.192 22.092H23.512L11.512 37.5H0.52L18.088 16.092V21.42L1.624 1.5H12.904L23.8 15.42H19.384L30.136 1.5H41.224L24.856 21.468ZM75.6201 16.14V22.86H49.5561V16.14H75.6201ZM55.7001 19.5L53.3001 34.38L49.5081 30.108H77.1561V37.5H44.2281L47.0121 19.5L44.2281 1.5H76.9161V8.892H49.5081L53.3001 4.62L55.7001 19.5ZM102.087 38.268C97.8629 38.268 94.1509 37.484 90.9509 35.916C87.7829 34.348 85.3189 32.156 83.5589 29.34C81.7989 26.524 80.9189 23.244 80.9189 19.5C80.9189 15.756 81.7989 12.476 83.5589 9.66C85.3189 6.844 87.7829 4.652 90.9509 3.084C94.1509 1.516 97.8629 0.731998 102.087 0.731998C106.311 0.731998 110.007 1.516 113.175 3.084C116.375 4.652 118.855 6.844 120.615 9.66C122.407 12.476 123.303 15.756 123.303 19.5C123.303 23.244 122.407 26.524 120.615 29.34C118.855 32.156 116.375 34.348 113.175 35.916C110.007 37.484 106.311 38.268 102.087 38.268ZM102.087 30.156C104.583 30.156 106.727 29.74 108.519 28.908C110.311 28.044 111.687 26.812 112.647 25.212C113.639 23.612 114.135 21.708 114.135 19.5C114.135 17.292 113.639 15.388 112.647 13.788C111.687 12.188 110.311 10.972 108.519 10.14C106.727 9.276 104.583 8.844 102.087 8.844C99.6229 8.844 97.4949 9.276 95.7029 10.14C93.9109 10.972 92.5189 12.188 91.5269 13.788C90.5349 15.388 90.0389 17.292 90.0389 19.5C90.0389 21.708 90.5349 23.612 91.5269 25.212C92.5189 26.812 93.9109 28.044 95.7029 28.908C97.4949 29.74 99.6229 30.156 102.087 30.156ZM162.036 31.308L159.108 31.836V1.5H167.892V37.5H156.468L134.532 7.164L137.46 6.636V37.5H128.676V1.5H140.436L162.036 31.308ZM192.463 1.5C196.687 1.5 200.383 2.252 203.551 3.756C206.719 5.26 209.183 7.356 210.943 10.044C212.735 12.732 213.631 15.884 213.631 19.5C213.631 23.084 212.735 26.236 210.943 28.956C209.183 31.644 206.719 33.74 203.551 35.244C200.383 36.748 196.687 37.5 192.463 37.5H174.895V1.5H192.463ZM183.919 33.804L179.503 29.484H193.135C195.439 29.484 197.439 29.068 199.135 28.236C200.831 27.404 202.143 26.252 203.071 24.78C203.999 23.276 204.463 21.516 204.463 19.5C204.463 17.452 203.999 15.692 203.071 14.22C202.143 12.748 200.831 11.596 199.135 10.764C197.439 9.932 195.439 9.516 193.135 9.516H179.503L183.919 5.196V33.804Z" fill="white"/>
</svg>
