<svg xmlns="http://www.w3.org/2000/svg" width="34" height="34" viewBox="0 0 34 34" fill="none">
  <path d="M14.559 23.396C14.5656 23.2404 14.8233 23.1785 14.8998 23.3143C15.2587 23.9513 15.8709 24.8883 16.5655 25.3143C17.2603 25.7403 18.3729 25.8611 19.1035 25.8922C19.259 25.8988 19.3208 26.1565 19.1851 26.233C18.548 26.5919 17.6112 27.2041 17.1852 27.8987C16.7592 28.5935 16.6383 29.7061 16.6073 30.4367C16.6007 30.5922 16.3428 30.654 16.2665 30.5183C15.9075 29.8812 15.2953 28.9444 14.6006 28.5184C13.906 28.0924 12.7933 27.9715 12.0628 27.9405C11.9072 27.9339 11.8454 27.676 11.9811 27.5997C12.6182 27.2407 13.5551 26.6285 13.9811 25.9338C14.4071 25.2392 14.5279 24.1266 14.559 23.396Z" fill="#3F3F3F"/>
  <path opacity="0.5" d="M26.197 21.9792C26.185 21.8239 25.9132 21.7587 25.8321 21.8917C25.588 22.292 25.2359 22.7749 24.8448 23.0149C24.4535 23.2549 23.8633 23.3495 23.396 23.3856C23.2407 23.3977 23.1755 23.6694 23.3086 23.7506C23.7088 23.9946 24.1917 24.3465 24.4317 24.7378C24.6717 25.1291 24.7663 25.7193 24.8024 26.1867C24.8145 26.3419 25.0862 26.4071 25.1674 26.2741C25.4115 25.8739 25.7634 25.3909 26.1546 25.1509C26.5459 24.9109 27.1361 24.8163 27.6035 24.7802C27.7587 24.7681 27.8239 24.4964 27.6909 24.4153C27.2907 24.1712 26.8077 23.8191 26.5677 23.428C26.3278 23.0367 26.2331 22.4465 26.197 21.9792Z" fill="#3F3F3F"/>
  <path d="M20.83 5.66924L20.4867 5.23564C19.1599 3.55961 18.4963 2.7216 17.7245 2.84531C16.9527 2.96902 16.5835 3.97251 15.8454 5.97952L15.6545 6.49875C15.4447 7.06908 15.3398 7.35424 15.1387 7.56355C14.9375 7.77285 14.6628 7.88258 14.1136 8.10208L13.6135 8.3019L13.2624 8.44239C11.5631 9.12419 10.7068 9.51053 10.5975 10.2613C10.4808 11.062 11.2913 11.7471 12.9123 13.1171L13.3316 13.4716C13.7923 13.8609 14.0226 14.0556 14.1546 14.321C14.2867 14.5863 14.3054 14.8922 14.3431 15.5042L14.3772 16.0612C14.5095 18.2147 14.5757 19.2913 15.2755 19.6625C15.9752 20.0337 16.8452 19.4535 18.5851 18.2933L19.0353 17.9931C19.5298 17.6634 19.777 17.4985 20.0597 17.4533C20.3425 17.408 20.6287 17.4873 21.2013 17.646L21.7225 17.7905C23.7371 18.349 24.7445 18.6282 25.2936 18.0568C25.8427 17.4855 25.57 16.442 25.0243 14.3548L24.8832 13.8148C24.7282 13.2217 24.6506 12.9252 24.6934 12.6318C24.736 12.3385 24.8943 12.0816 25.2105 11.5677L25.4983 11.0999C26.6113 9.29168 27.1677 8.38757 26.8073 7.66325C26.4468 6.93893 25.4082 6.87409 23.3311 6.74442L22.7938 6.71087C22.2034 6.67402 21.9083 6.65561 21.6519 6.51962C21.3957 6.38365 21.2071 6.14551 20.83 5.66924Z" fill="#3F3F3F"/>
  <path opacity="0.5" d="M12.5161 18.8785C9.48827 20.3578 6.96886 22.7007 6.01846 25.5003C4.95234 18.8312 6.43116 14.5245 8.8017 11.848C9.00598 12.2655 9.27144 12.6112 9.50987 12.8813C10.0056 13.4429 10.7172 14.0441 11.4397 14.6546L11.9597 15.0939C12.0583 15.1773 12.135 15.2422 12.2001 15.2985C12.2068 15.3895 12.2133 15.4959 12.2218 15.6339L12.264 16.3217C12.3208 17.2495 12.3763 18.1553 12.5161 18.8785Z" fill="#3F3F3F"/>
</svg>