<svg xmlns="http://www.w3.org/2000/svg" width="100" height="100" viewBox="0 0 100 100" fill="none">
  <path fill-rule="evenodd" clip-rule="evenodd" d="M60.5741 24.4134C51.6178 28.0993 33.718 35.7284 6.87448 47.3005C2.51552 49.0156 0.232096 50.6935 0.0242261 52.3342C-0.327079 55.107 3.18217 56.1988 7.96086 57.6856C8.61088 57.8879 9.2844 58.0974 9.97489 58.3195C14.6764 59.8317 21.0007 61.6008 24.2885 61.6711C27.2708 61.7348 30.5994 60.5182 34.2743 58.0214C59.355 41.2695 72.3018 32.8023 73.1146 32.6198C73.6881 32.491 74.4827 32.3291 75.0211 32.8026C75.5595 33.2761 75.5066 34.1728 75.4496 34.4134C75.1019 35.8798 61.3268 48.5515 54.1982 55.1091C51.9759 57.1534 50.3995 58.6035 50.0773 58.9347C49.3554 59.6766 48.6197 60.3783 47.9126 61.0528C43.5448 65.2191 40.2693 68.3434 48.0939 73.4453C51.8541 75.8972 54.8631 77.9246 57.8648 79.9473C61.1431 82.1563 64.4128 84.3595 68.6434 87.1035C69.7212 87.8026 70.7506 88.5287 71.7532 89.236C75.5683 91.9272 78.9958 94.3449 83.2303 93.9594C85.6909 93.7353 88.2324 91.4461 89.5232 84.6183C92.5737 68.4825 98.5698 33.5209 99.9555 19.1141C100.077 17.8519 99.9242 16.2365 99.8016 15.5273C99.6789 14.8182 99.4226 13.8079 98.4911 13.0599C97.3878 12.1742 95.6847 11.9874 94.9229 12.0006C91.4596 12.061 86.146 13.8892 60.5741 24.4134Z" fill="black"/>
</svg>