<?xml version="1.0" encoding="UTF-8"?>
<svg id="_Слой_1" data-name="Слой 1" xmlns="http://www.w3.org/2000/svg" viewBox="0 0 501.81 499">
  <defs>
    <style>
      .cls-1 {
        fill: #fff;
      }
    </style>
  </defs>
  <path class="cls-1" d="m249.59,94.08c13.41,0,26.43,1.69,38.85,4.87l13.33.93,17.39-17.39-2.9-17.39,26.32-7.03-8.93-13.26,14.5-5.8-5.57-16.47v-6.13C314.31,5.82,283.33,0,250.44,0,107.87,0,0,109.74,0,249.5c0,70.01,27.46,132.83,72.94,177.94l14.3,5.84v-14.5l11.6-2.9-2.9-14.5,17.39-11.6-5.91-14.92,18.54-11.48v-16.77c-20.61-26.51-32.92-59.8-32.92-95.99,0-86.46,70.09-156.55,156.55-156.55Z"/>
  <path class="cls-1" d="m426.15,68.73l-11.31-3.64-5.8,11.6-11.6,2.9-5.8,14.5h-8.7l-5.8,14.5-5.8,2.9v13.94s-11.6,6.35-11.6,6.35l11.59,20.5c21.75,26.88,34.79,61.1,34.79,98.37,0,86.46-70.09,156.55-156.55,156.55-14.47,0-28.46-2-41.75-5.67l-24.93,2.78v17.39l-14.16,11.6,2.54,6.72-15.76,9.72-1.62,15.45h6.23l-6.23,9.81,1.62,6.26c29.02,11.43,60.96,17.77,94.9,17.77,143.51,0,251.37-110.68,251.37-249.5,0-71.8-28.52-135.63-75.67-180.77Z"/>
</svg>