<svg width="48" height="48" viewBox="0 0 48 48" fill="none" xmlns="http://www.w3.org/2000/svg">
<g id="Telegram - Negative" clip-path="url(#clip0_159_219)">
<path id="Subtract" fill-rule="evenodd" clip-rule="evenodd" d="M48 24C48 37.2548 37.2548 48 24 48C10.7452 48 0 37.2548 0 24C0 10.7452 10.7452 0 24 0C37.2548 0 48 10.7452 48 24ZM24.8603 17.7181C22.5259 18.689 17.8605 20.6986 10.864 23.7469C9.72791 24.1987 9.13276 24.6407 9.07858 25.0729C8.98702 25.8032 9.90167 26.0908 11.1472 26.4825C11.3166 26.5358 11.4922 26.591 11.6721 26.6495C12.8975 27.0478 14.5459 27.5138 15.4028 27.5323C16.1801 27.5491 17.0477 27.2286 18.0055 26.5709C24.5426 22.1582 27.917 19.9279 28.1289 19.8798C28.2783 19.8459 28.4854 19.8032 28.6258 19.9279C28.7661 20.0527 28.7523 20.2889 28.7374 20.3523C28.6468 20.7385 25.0565 24.0765 23.1985 25.8038C22.6192 26.3423 22.2084 26.7243 22.1244 26.8115C21.9363 27.0069 21.7445 27.1918 21.5602 27.3694C20.4218 28.4669 19.5681 29.2899 21.6075 30.6338C22.5875 31.2796 23.3717 31.8137 24.1541 32.3465C25.0086 32.9284 25.8608 33.5088 26.9635 34.2316C27.2444 34.4157 27.5127 34.607 27.774 34.7933C28.7684 35.5022 29.6617 36.1391 30.7654 36.0375C31.4067 35.9785 32.0692 35.3755 32.4056 33.577C33.2007 29.3265 34.7635 20.1172 35.1247 16.3222C35.1563 15.9897 35.1165 15.5642 35.0845 15.3774C35.0526 15.1906 34.9858 14.9245 34.743 14.7274C34.4554 14.4941 34.0115 14.4449 33.813 14.4484C32.9103 14.4643 31.5254 14.9459 24.8603 17.7181Z" fill="white"/>
</g>
<defs>
<clipPath id="clip0_159_219">
<rect width="48" height="48" fill="white"/>
</clipPath>
</defs>
</svg>
