<svg width="48" height="48" viewBox="0 0 48 48" fill="none" xmlns="http://www.w3.org/2000/svg">
<g id="Bold / Call / Phone Calling Rounded">
<path id="Vector" d="M20.0752 10.6323L21.3732 12.9582C22.5446 15.0572 22.0744 17.8106 20.2294 19.6556C20.2294 19.6556 20.2294 19.6556 20.2294 19.6556C20.2293 19.6557 17.9917 21.8936 22.049 25.951C26.1057 30.0076 28.3436 27.7714 28.3444 27.7706C28.3444 27.7706 28.3444 27.7706 28.3444 27.7705C30.1894 25.9256 32.9428 25.4554 35.0418 26.6268L37.3677 27.9248C40.5371 29.6936 40.9114 34.1385 38.1255 36.9244C36.4515 38.5984 34.4008 39.901 32.1338 39.9869C28.3176 40.1316 21.8366 39.1657 15.3354 32.6646C8.83426 26.1634 7.86843 19.6824 8.0131 15.8662C8.09904 13.5992 9.40161 11.5485 11.0756 9.87446C13.8615 7.08856 18.3063 7.46287 20.0752 10.6323Z" fill="white"/>
<g id="Vector_2">
<path d="M26.519 3.76015C26.6514 2.94237 27.4244 2.38762 28.2422 2.52002C28.2928 2.52971 28.4557 2.56015 28.5411 2.57915C28.7117 2.61716 28.9498 2.67568 29.2466 2.76213C29.8401 2.93501 30.6693 3.21982 31.6646 3.67609C33.6571 4.5896 36.3088 6.18761 39.0604 8.93921C41.812 11.6908 43.41 14.3424 44.3235 16.335C44.7798 17.3302 45.0646 18.1594 45.2374 18.753C45.3239 19.0498 45.3824 19.2879 45.4204 19.4585C45.4394 19.5439 45.4533 19.6124 45.463 19.663L45.4745 19.7254C45.6069 20.5432 45.0572 21.3482 44.2394 21.4806C43.424 21.6126 42.6558 21.0605 42.5201 20.2466C42.5159 20.2248 42.5045 20.166 42.4922 20.1107C42.4675 19.9999 42.4248 19.8242 42.3571 19.5919C42.2218 19.1273 41.9867 18.4366 41.5964 17.5852C40.8167 15.8846 39.4148 13.5363 36.939 11.0605C34.4633 8.58481 32.1149 7.18282 30.4143 6.40316C29.563 6.01285 28.8723 5.77778 28.4076 5.64243C28.1753 5.57477 27.8833 5.50775 27.7726 5.48308C26.9586 5.34743 26.387 4.57559 26.519 3.76015Z" fill="white"/>
<path fill-rule="evenodd" clip-rule="evenodd" d="M26.9715 10.6591C27.1991 9.86253 28.0293 9.40129 28.8258 9.62888L28.4138 11.0712C28.8258 9.62888 28.8258 9.62888 28.8258 9.62888L28.8287 9.6297L28.8318 9.63059L28.8385 9.63254L28.854 9.63716L28.8935 9.64949C28.9237 9.65913 28.9613 9.6717 29.0062 9.68763C29.0961 9.7195 29.2148 9.76483 29.3604 9.82724C29.6518 9.95211 30.0499 10.145 30.5389 10.4344C31.5178 11.0137 32.8542 11.9761 34.4242 13.546C35.9941 15.116 36.9565 16.4524 37.5358 17.4313C37.8253 17.9203 38.0181 18.3184 38.143 18.6098C38.2054 18.7554 38.2507 18.8741 38.2826 18.964C38.2985 19.0089 38.3111 19.0465 38.3207 19.0767L38.333 19.1162L38.3377 19.1317L38.3396 19.1384L38.3405 19.1415C38.3405 19.1415 38.3413 19.1444 36.899 19.5564L38.3413 19.1444C38.5689 19.9409 38.1077 20.7711 37.3111 20.9987C36.5213 21.2244 35.6984 20.7729 35.4627 19.9887L35.4553 19.9672C35.4446 19.9371 35.4226 19.878 35.3855 19.7916C35.3115 19.6189 35.1773 19.3364 34.9541 18.9592C34.5082 18.2058 33.7028 17.0673 32.3028 15.6674C30.9029 14.2675 29.7644 13.462 29.011 13.0161C28.6338 12.7929 28.3513 12.6587 28.1786 12.5847C28.0922 12.5476 28.0331 12.5256 28.003 12.5149L27.9815 12.5075C27.1973 12.2718 26.7458 11.4489 26.9715 10.6591Z" fill="white"/>
</g>
</g>
</svg>
