<?xml version="1.0" encoding="UTF-8"?>
<svg xmlns="http://www.w3.org/2000/svg" viewBox="0 0 698.36 183.74">
  <defs>
    <style>
      .cls-1 {
        fill: #fff;
      }
    </style>
  </defs>
  <g id="_Слой_1" data-name="Слой 1">
    <path class="cls-1" d="m78.45,152.96l-23.16-35.84-23.16,35.84H0l37.59-57.03L1.75,42.17h32.34l21.2,34.53,21.2-34.53h32.34l-35.84,53.97,37.59,56.82h-32.12Z"/>
  </g>
  <g id="_Слой_5" data-name="Слой 5">
    <g>
      <path class="cls-1" d="m344.47,44.07c4.63,0,9.12.58,13.4,1.68l4.6.32,6-6-1-6,9.08-2.43-3.08-4.57,5-2-1.92-5.68v-2.11c-9.75-3.65-20.44-5.65-31.79-5.65-49.18,0-86.38,37.85-86.38,86.06,0,24.15,9.47,45.82,25.16,61.38l4.93,2.01v-5l4-1-1-5,6-4-2.04-5.14,6.39-3.96v-5.79c-7.11-9.14-11.36-20.63-11.36-33.11,0-29.82,24.18-54,54-54Z"/>
      <path class="cls-1" d="m405.37,35.33l-3.9-1.26-2,4-4,1-2,5h-3l-2,5-2,1v4.81s-4,2.19-4,2.19l4,7.07c7.5,9.27,12,21.07,12,33.93,0,29.82-24.18,54-54,54-4.99,0-9.82-.69-14.4-1.96l-8.6.96v6l-4.88,4,.88,2.32-5.44,3.35-.56,5.33h2.15l-2.15,3.38.56,2.16c10.01,3.94,21.03,6.13,32.74,6.13,49.5,0,86.71-38.18,86.71-86.06,0-24.77-9.84-46.78-26.1-62.35Z"/>
    </g>
  </g>
  <g id="_Слой_2" data-name="Слой 2">
    <path class="cls-1" d="m698.36,0v152.96h-27.75v-12.89c-7.21,8.96-18.14,15.73-35.4,15.73-34.31,0-53.97-29.06-53.97-58.13s19.67-58.13,53.97-58.13c17.26,0,28.19,6.56,35.4,15.73V0h27.75Zm-29.06,97.68c0-17.04-10.71-31.47-29.72-31.47s-29.94,14.42-29.94,31.47,10.93,31.47,29.94,31.47,29.72-14.42,29.72-31.47Z"/>
  </g>
  <g id="_Слой_3" data-name="Слой 3">
    <path class="cls-1" d="m561.56,85.66v67.3h-27.75v-61.62c0-14.2-5.9-24.91-21.63-24.91s-23.6,12.24-23.6,24.91v61.62h-27.53V42.17h27.53v13.55c6.12-8.96,16.17-16.17,32.34-16.17,27.97,0,40.64,22.73,40.64,46.11Z"/>
  </g>
  <g id="_Слой_4" data-name="Слой 4">
    <path class="cls-1" d="m227.7,108.39h-82.16c3.93,14.86,16.17,22.73,31.47,22.73,12.67,0,21.42-6.77,24.69-10.93l22.29,13.11c-8.96,12.46-26,22.51-46.98,22.51-36.71,0-60.97-24.47-60.97-58.13s26-58.13,56.6-58.13c33.43,0,60.09,25.13,55.07,68.83Zm-27.1-21.42c-2.84-14.42-12.67-22.73-27.53-22.73-13.55,0-24.26,8.52-27.53,22.73h55.07Z"/>
  </g>
</svg>